# xmcd CD database file
#
# Track frame offsets:
#	150
#	11590
#	25642
#	36230
#	48045
#	60140
#	70222
#	80392
#	97427
#	109980
#
# Disc length: 1614 seconds
#
# Revision: 0
# Processed by: cddbd v1.4PL0 Copyright (c) Steve Scherf et al.
# Submitted via: CDex 1.40Release
#
DISCID=77064c0a
DTITLE=Johnny Bush - Whiskey River
DYEAR=1999
DGENRE=Country
TTITLE0=Whiskey River
TTITLE1=Unchained Melody
TTITLE2=Drivin' Nails In My Coffin
TTITLE3=When My Conscience Hurts The Most
TTITLE4=Amarillo Depot
TTITLE5=Play "Together Again" Again
TTITLE6=My Mind Is A Bridge For Your Memory
TTITLE7=Rainbow Colored Words
TTITLE8=Put Me Out Of My Memory
TTITLE9=Ain't It Easy
EXTD=YEAR: 1999 ID3G: 2
EXTT0=
EXTT1=
EXTT2=
EXTT3=
EXTT4=
EXTT5=
EXTT6=
EXTT7=
EXTT8=
EXTT9=
PLAYORDER=
